<svg xmlns="http://www.w3.org/2000/svg" width="512" height="512">
  <path fill="#010101" d="M393.7 39.6A24.9 24.9 0 0 1 394 76c-5.8 4.2-9.2 4.5-17 6.1v23l7 2c4.2 3.5 7.6 7.3 8.4 12.8l.1 10v3.5c.1 7.1-.6 12.3-5.5 17.7-2.2 1.7-2.2 1.7-4.2 2.5l-2 1c-1.8.5-1.8.5-3.8.5v24l6.3-.3c10.2 0 17.7 2.5 25 9.6l1.7 1.7 2.3 2.3c6.3 10 8.2 23.1 11 34.5a12606 12606 0 0 0 5.6 22l4 16c8 31.9 8 31.9 8.5 34.4l.6 1.8c2.5 1 2.5 1 6 2 3.7 1.5 7.3 3.2 11 4.8l3 1.3c7 3.1 12.8 6.2 16.8 13l1.2 2c1.9 3.6 2.1 6.5 2.1 10.5v31.3L482 386h3.5l4.7-.1h2.3c6 0 9.6.5 14.5 4.1 5.5 5.8 5.2 11.1 5.3 18.8l.1 3c0 6.3-.6 10-4.4 15.2a21 21 0 0 1-15 5.1h-3.8a26067.8 26067.8 0 0 1-19.1 0h-11.2L437 432l-.4 2-.5 2.8-.5 2.7a51.2 51.2 0 0 1-21.4 29.2 57.2 57.2 0 0 1-43.4 7.2A56.5 56.5 0 0 1 337 449c-2.5-5.6-4.1-11-5-17l-3.6.1-4.6.1-2.4.2c-3.8 0-5.8 0-9-2.2-1.4-2.2-1.4-2.2-1.4-6.2h-20l-1 5c-1.6 2.2-2.4 2.9-5 3.4H273.7a1676.5 1676.5 0 0 1-17.6-.1h-19L218 432 180 432l-.4 2-.5 2.8-.5 2.7a51.2 51.2 0 0 1-21.4 29.2 57.2 57.2 0 0 1-43.4 7.2A56.5 56.5 0 0 1 80 449c-2.5-5.6-4-11-5-17h-2.3a3749.1 3749.1 0 0 1-49.3.5c-8.1 0-14.1-.5-20.3-6.3-3.4-5.6-3.9-10.6-3.7-17.2v-2.9c0-6.5 1.3-11 5.6-16.1 7-6.3 16-4 25-4v-35H15a659400667.5 659400667.5 0 0 1 .3 11.3v4.7c-.4 2.6-1.3 3.4-3.3 5-2.2.4-2.2.4-4.5.4H5.2c-2.8-.5-3.5-1.2-5.2-3.4-.4-2.6-.4-2.6-.4-5.9v-3.7a9428 9428 0 0 1 0-20V327a7116.3 7116.3 0 0 1 0-64.7 3389 3389 0 0 0 0-33.5v-3.3c.4-2.6.4-2.6 1.8-4.4 2.1-1.6 3.5-1.6 6.1-1.6h2.3c2.8.5 3.5 1.2 5.2 3.4.3 2.4.3 2.4.3 5.1v3l-.1 3v3.2L15 245h15v-3.2a1069.5 1069.5 0 0 1-.4-17c-.3-13 .6-23.3 9.2-33.7a37.7 37.7 0 0 1 24.4-12.3l4.8.2v-11l-5 .3a21 21 0 0 1-15.7-5.8c-4.7-5-7.4-10.6-7.7-17.5a26 26 0 0 1 8.4-18 49.4 49.4 0 0 1 16.4-6.8l7-2a5101 5101 0 0 0 33.4-9 22269.7 22269.7 0 0 1 78.6-21.6 54036.5 54036.5 0 0 1 116.9-32.4l2.4-.7c10.4-2.8 20.8-5.8 31.1-8.7l13.3-3.7a2378.9 2378.9 0 0 0 16-4.6l2.7-.8a32.9 32.9 0 0 1 27.9 3ZM15 261v29h15v-29H15Zm0 45v29h15v-29H15Z"/>
  <path fill="#C1ADEE" d="M69.8 193.7H77a3241.6 3241.6 0 0 0 15 0h11.8a11620.7 11620.7 0 0 1 42.2 0 50036.5 50036.5 0 0 1 56.4 0h3a25224.6 25224.6 0 0 0 122-.2 5544.2 5544.2 0 0 1 51.1 0c8.4 0 13.8 1.2 20.3 7 6.2 8.3 7.5 21.5 10 31.6l1.8 7.3 4.6 18.2a11903.7 11903.7 0 0 0 5.6 22.7c3.5 19.3 3.5 19.3 14.5 33.8l4 1.8 2 1a686.8 686.8 0 0 0 15.5 7.3l2 1c4.3 2 6.3 3.6 8.2 7.8.3 2.8.4 5.4.3 8.3v2.5a1019.2 1019.2 0 0 1 0 13.7v14.8l-.2 15-.1 29.7h-31l-3-12a54.4 54.4 0 0 0-28.9-29.3 56.8 56.8 0 0 0-41.2.7c-5.3 3-10.6 6.3-14.9 10.6a155.3 155.3 0 0 1-9.3.2 2593.1 2593.1 0 0 1-30.8.1h-3a19560.3 19560.3 0 0 1-90.8.3 2257 2257 0 0 0-35 .1c-15 .2-15 .2-19.5-3.6L157 381c-2.4-1.6-2.4-1.6-4.8-2.7l-2.3-1.1a58.2 58.2 0 0 0-26-4.7 50.4 50.4 0 0 0-35.6 17.1c-6.7 8.1-10 17.3-12.3 27.4H45a34665.5 34665.5 0 0 1-.6-183v-6c-.2-20-.2-20 7.6-28.1l2-1.3 1.8-1.4c4.6-2.5 8.8-3.4 14-3.5Z"/>
  <path fill="#FEC168" d="M362 86v94H83v-17c9-2.9 17.9-5.5 27-7.9 8-2 16-4.2 24-6.6 8.7-2.6 17.5-5 26.4-7.2 7.9-2 15.7-4.4 23.6-6.7 8-2.3 15.9-4.5 23.9-6.5 4.9-1.2 9.6-2.6 14.4-4 7.8-2.5 15.7-4.5 23.6-6.5 6.7-1.7 13.4-3.6 20-5.7 4.6-1.4 9.3-2.5 14-3.7 9-2.3 18-4.9 27-7.5a2069.5 2069.5 0 0 1 39.6-11.3l2.5-.7 4.6-1.3c3-.8 5.4-1.4 8.4-1.4Z"/>
  <path fill="#030203" d="M240.1 209.7h3.9a4405.4 4405.4 0 0 1 37.5 0 617 617 0 0 0 10.1 0h3.4c4.5.5 7 2 9.8 5.5 1.5 3.5 1.6 6.7 1.6 10.4v2.3a765.5 765.5 0 0 1 0 23.4 1573 1573 0 0 0 .1 29.7 532.5 532.5 0 0 1 0 9.2c0 5.4-1.5 8.4-4.5 12.8-5.5 4.3-12.6 3.4-19.2 3.4h-4a1169.3 1169.3 0 0 1-18.5 0l-10 .1h-3.7c-6.7 0-11.3-.2-16.6-4.5a23.1 23.1 0 0 1-3.4-13.7V286a766 766 0 0 1 0-23.4 1574.2 1574.2 0 0 0-.1-29.7 531.6 531.6 0 0 1 0-9.3c0-5 1.4-7.8 4.5-11.6 3.5-2.3 5-2.3 9.1-2.3ZM146.1 209.7h3.9a4405.4 4405.4 0 0 1 37.5 0 617 617 0 0 0 10.1 0h3.4c4.5.5 7 2 9.8 5.5 1.5 3.5 1.6 6.7 1.6 10.4a616261127.3 616261127.3 0 0 0 0 25.7 1573 1573 0 0 0 .1 29.7 532.5 532.5 0 0 1 0 9.2c0 5.4-1.5 8.4-4.5 12.8-5.5 4.3-12.6 3.4-19.2 3.4h-4a1169.3 1169.3 0 0 1-18.5 0l-10 .1h-3.7c-6.7 0-11.3-.2-16.6-4.5a23.1 23.1 0 0 1-3.4-13.7V286a766 766 0 0 1 0-23.4 1574.2 1574.2 0 0 0-.1-29.7 531.6 531.6 0 0 1 0-9.3c0-5 1.4-7.8 4.5-11.6 3.5-2.3 5-2.3 9.1-2.3Z"/>
  <path fill="#030304" d="M333.1 209.7h10.1a1725.4 1725.4 0 0 1 25.7-.2h3.4c6.2 0 10 .3 14.7 4.5 4.7 7.5 5.8 18.2 7.8 26.8a513 513 0 0 0 7.6 28.8l1.6 5.9.7 2.7.7 2.5c3.5 13.5 3.5 13.5.7 19.2a16.6 16.6 0 0 1-9.1 6.1c-3 .3-3 .3-6.5.3h-4a3730.2 3730.2 0 0 1-38.4.2h-4.3c-14.4.1-14.4.1-19.8-4.5a23.2 23.2 0 0 1-3.4-13.7V286a766 766 0 0 1 0-23.4 1574.2 1574.2 0 0 0-.1-29.7v-9.2c0-5 1.4-7.9 4.5-11.7 3.3-2.2 4.3-2.3 8.1-2.3Z"/>
  <path fill="#F9DB7A" d="M382 51c2.6 1.6 2.6 1.6 4 4 .5 3 .5 3 0 6-3 3.7-5.6 4.8-10.1 6l-3.8 1-2 .5-10.9 3a6486.9 6486.9 0 0 1-31.5 8.7c-7.6 2-15.1 4.2-22.7 6.4-9 2.7-18 5.2-27.2 7.4l-19.5 5.4-11.3 3.1a208708 208708 0 0 0-90.4 25.2c-8.1 2.5-16.3 4.6-24.6 6.7-7.8 2-15.5 4.2-23.1 6.5-6.2 2-12.4 3.5-18.7 5-3.2.8-6.3 1.7-9.4 2.7l-2.7.9a363 363 0 0 0-5.2 1.7c-5 1.5-8.7 2.1-13.9.8-2.6-2.3-3-3.6-3.4-7 .5-3.7 1.6-4.6 4.4-7 2.3-1 2.3-1 4.8-1.7l3-.8 3-.9 3.2-.9 24.3-6.4c8-2 16-4.4 23.8-6.7l27.9-7.8 17.3-4.7 3.7-1a6511.9 6511.9 0 0 0 49.7-13.8l20.7-5.8c8-2.3 16-4.4 24.2-6.5a747 747 0 0 0 26.4-7.4c8-2.3 16-4.5 24.1-6.5 5.9-1.5 11.6-3.2 17.3-5 6-1.8 12-3.3 18.1-4.9 5.4-1.4 10.6-2.8 15.9-4.6 5.1-1.6 9.2-2.3 14.6-1.6Z"/>
  <path fill="#9D95E0" d="M64 194a102939.1 102939.1 0 0 1 138-.2h3a37998.7 37998.7 0 0 0 145.2-.3 1922.2 1922.2 0 0 0 28.3 0c8.4 0 13.8 1.2 20.3 7 6.2 8.3 7.5 21.5 10 31.6l1.8 7.3 4.6 18.2a11903.7 11903.7 0 0 0 5.6 22.7c3.5 19.3 3.5 19.3 14.5 33.8l4 1.8 2 1a686.8 686.8 0 0 0 15.5 7.3l2 1c4.3 2 6.3 3.6 8.2 7.8a74 74 0 0 1 .3 10.8 1019.2 1019.2 0 0 1 0 13.7v14.8l-.2 15-.1 29.7h-31v-1h9a9312.7 9312.7 0 0 0-.6-73.6v-2.2c0-6.6-1.5-12.6-6.3-17.4-5-4-11.2-6-17.2-8.4C407 309 407 309 402 304l2-2.4c3.6-5.6 2.5-11.3 1.2-17.5-1-4.4-2-8.7-3.2-13.1l-1-3.6-1.9-7.2-4.1-15.7a199847.9 199847.9 0 0 0-4.2-16.1l-.5-2.1-1.3-5.3c-1.2-3.8-2.4-7-5.8-9.1-2.5-1-4.5-1.2-7.2-1.2h-3l-3.3-.1h-3.4a2726.3 2726.3 0 0 0-35.3-.6v-1h47c-3.2-9-3.2-9-6-13-2.3-.5-2.3-.5-5-.4H334.3a6998.4 6998.4 0 0 0-48-.2 32565.4 32565.4 0 0 0-91-.1h-2.7A344881 344881 0 0 1 64 195v-1Z"/>
  <path fill="#6C626E" d="M408 394a39 39 0 0 1 14.4 25.5A41 41 0 0 1 413 449c-3 3.2-6.2 5.7-9.9 8l-2 1.3c-7.9 4.3-18 3.7-26.8 2.2a38.7 38.7 0 0 1-26.1-47.7 42 42 0 0 1 22-24c12.8-5 26.8-2.6 37.9 5.2ZM151 394a39 39 0 0 1 14.4 25.5A41 41 0 0 1 156 449c-3 3.2-6.2 5.7-9.9 8l-2 1.3c-7.9 4.3-18 3.7-26.8 2.2a38.7 38.7 0 0 1-26.1-47.7 42 42 0 0 1 22-24c12.8-5 26.8-2.6 37.9 5.2Z"/>
  <path fill="#030203" d="M71.2 209.7H79.4a1173.3 1173.3 0 0 1 20.8 0h2.8c4.8 0 8 .1 12 3.3 4.1 4.6 3.5 10.2 3.5 16v3c.1 4.8 0 7.2-2.8 11.2-2.7 1.8-2.7 1.8-6.3 1.9-3.8-1.2-4.6-1.7-6.4-5.1-.2-2.7-.3-5-.2-7.8l.2-7.2H75v66h28l-.5-13.4c0-4.6 0-6.9 2.8-10.8 2.7-1.8 2.7-1.8 6.3-1.9 3.8 1.2 4.5 1.8 6.4 5.1.6 4.2.5 8.5.4 12.8l.1 3.5c0 6.7-.2 11.4-4.5 16.7a24 24 0 0 1-14.7 3.4H97a596.5 596.5 0 0 1-13 .1 1844.6 1844.6 0 0 1-7.5 0A20 20 0 0 1 63 302a23 23 0 0 1-3.4-13.7V286a766 766 0 0 1 0-23.4 1574.2 1574.2 0 0 0-.1-29.7 531.6 531.6 0 0 1 0-9.3c0-5 1.4-7.8 4.5-11.6 3-2 3.7-2.3 7.2-2.3Z"/>
  <path fill="#E1FAFD" d="M242 225h49v66h-49v-66ZM148 225h49v66h-49v-66Z"/>
  <path fill="#E0F9FB" d="M336 225h39l4 15 2.3 8.3c2.2 8 4.4 16 6.4 24l1 3.5.8 3.3.8 3c.7 3 1.2 6 1.7 8.9h-56v-66Z"/>
  <path fill="#A199E7" d="M176 402h160l-2 9-1 6-3.8.1-5 .2h-2.5l-2.5.2H317c-2.5.6-3.4 1.5-5 3.5l-1 3h-20l-2-6-110-1c-3-12-3-12-3-15Z"/>
  <path fill="#EFA059" d="M362 86v94H83v-1h257V93l-3-1 10.8-3 3.1-.9 3-.8 2.7-.7c2.4-.6 2.4-.6 5.4-.6Z"/>
  <path fill="#E1F9FD" d="M75 225h28l.3 9.5c.2 3.4.5 5.2 2.6 8 2.1 1.7 2.1 1.7 5.1 2.5v20l-6 3c-1.2 2.4-1.2 4.1-1.3 6.8l-.1 2.6-.2 3.2-.4 10.4H75v-66Z"/>
  <path fill="#020202" d="M397 404.5c4.8 3.7 7.4 8.2 10 13.5 1 8-.2 14.5-5 21-6.4 6-11 7.3-19.7 7.2-6.2-.4-11-2.8-15.3-7.2-4.2-6.3-6.4-12.4-5-20a25.8 25.8 0 0 1 13-16c7-2.4 15.6-2.4 22 1.5ZM140 404.5c4.8 3.7 7.4 8.2 10 13.5 1 8-.2 14.5-5 21-6.4 6-11 7.3-19.7 7.2-6.2-.4-11-2.8-15.3-7.2-4.2-6.3-6.4-12.4-5-20a25.8 25.8 0 0 1 13-16c7-2.4 15.6-2.4 22 1.5Z"/>
  <path fill="#5B515E" d="M381 387a37.4 37.4 0 0 1 27 7 39 39 0 0 1 14.4 25.5A41 41 0 0 1 413 449a35.7 35.7 0 0 1-22.4 12.2c-3.2 0-6.3 0-9.5-.2l2-2c4.4-4.2 9-9.2 11-15 1.7-1.3 1.7-1.3 3.8-2.6 4.7-3.4 6.8-6.8 8.2-12.4 1-6.9.2-12.2-3.4-18a26 26 0 0 0-7-5.8c-2.3-1.7-3.3-3.9-4.6-6.4-2.5-4.6-6.3-8.2-10-11.8ZM124 387a37.4 37.4 0 0 1 27 7 39 39 0 0 1 14.4 25.5A41 41 0 0 1 156 449a35.7 35.7 0 0 1-22.4 12.2c-3.2 0-6.3 0-9.5-.2l2-2c4.4-4.2 9-9.2 11-15 1.7-1.3 1.7-1.3 3.8-2.6 4.7-3.4 6.8-6.8 8.2-12.4 1-6.9.2-12.2-3.4-18a26 26 0 0 0-7-5.8c-2.3-1.7-3.3-3.9-4.6-6.4-2.5-4.6-6.3-8.2-10-11.8Z"/>
  <path fill="#060508" d="M330.5 320.6H350c3 .4 3 .4 4.9 1.7 1.6 2.4 1.6 4.8 1.7 7.7-.6 2-.6 2-2.4 4.2-5 2.8-10 2.4-15.7 2.3h-3.4c-8.2 0-8.2 0-12.4-2.3-1.8-2.3-2.3-3.3-2.2-6.3.5-3.9.5-3.9 1.6-5.6 2.8-2 5-1.7 8.4-1.7Z"/>
  <path fill="#F9CB61" d="M382 51c2.6 1.6 2.6 1.6 4 4 .5 3 .5 3 0 6-3 4-6.2 5-11 6.2l-3.6 1A160 160 0 0 1 363 70l-.1-1.8-.3-2.3-.2-2.3A48 48 0 0 0 360 55c14.4-5 14.4-5 22-4Z"/>
  <path fill="#E9DED9" d="M482 402h14c1.8 1.8 1.2 4.5 1.2 7v3.2c-.2 2.8-.2 2.8-2.2 4.8-4.3.3-8.6 0-13 0v-15Z"/>
  <path fill="#F2EBEC" d="m19.2 401.9 10.8.1v15c-10 .2-10 .2-13 0-2-2-2-2-2.2-4.8v-6.5c.3-3.9.4-3.7 4.4-3.8Z"/>
  <path fill="#F2EAEB" d="M388 417a9.5 9.5 0 0 1 4 4c.6 3.6.5 5.3-1.6 8.4-3.3 2.2-5.4 2.2-9.4 1.6-2.4-1.6-2.4-1.6-4-4-.6-3.6-.5-5.3 1.6-8.4 3.3-2.2 5.4-2.2 9.4-1.6ZM131 417a9.5 9.5 0 0 1 4 4c.6 3.6.5 5.3-1.6 8.4-3.3 2.2-5.4 2.2-9.4 1.6-2.4-1.6-2.4-1.6-4-4-.6-3.6-.5-5.3 1.6-8.4 3.3-2.2 5.4-2.2 9.4-1.6Z"/>
</svg>
