<svg xmlns="http://www.w3.org/2000/svg" aria-hidden="true" style="position:absolute;width:0;height:0;overflow:hidden">
  <defs>
    <symbol id="icon-alcove" viewBox="0 0 32 32">
      <path d="M8 4v4H4V4h4zm2 24v-4a2 2 0 0 0-2-2H4a2 2 0 0 0-2 2v4a2 2 0 0 0 2 2h4a2 2 0 0 0 2-2zm0-10v-4a2 2 0 0 0-2-2H4a2 2 0 0 0-2 2v4a2 2 0 0 0 2 2h4a2 2 0 0 0 2-2zm0-10V4a2 2 0 0 0-2-2H4a2 2 0 0 0-2 2v4a2 2 0 0 0 2 2h4a2 2 0 0 0 2-2zm10 20v-4a2 2 0 0 0-2-2h-4a2 2 0 0 0-2 2v4a2 2 0 0 0 2 2h4a2 2 0 0 0 2-2zm0-10v-4a2 2 0 0 0-2-2h-4a2 2 0 0 0-2 2v4a2 2 0 0 0 2 2h4a2 2 0 0 0 2-2zm0-10V4a2 2 0 0 0-2-2h-4a2 2 0 0 0-2 2v4a2 2 0 0 0 2 2h4a2 2 0 0 0 2-2zm-2-4v4h-4V4h4zm10 0v4h-4V4h4zM8 14v4H4v-4h4zm10 0v4h-4v-4h4zm10 0h-4v4h4v-4zM8 24v4H4v-4h4zm10 0v4h-4v-4h4zm10 0v4h-4v-4h4zM24 2a2 2 0 0 0-2 2v4a2 2 0 0 0 2 2h4a2 2 0 0 0 2-2V4a2 2 0 0 0-2-2h-4zm-2 12a2 2 0 0 1 2-2h4a2 2 0 0 1 2 2v4a2 2 0 0 1-2 2h-4a2 2 0 0 1-2-2v-4zm2 8a2 2 0 0 0-2 2v4a2 2 0 0 0 2 2h4a2 2 0 0 0 2-2v-4a2 2 0 0 0-2-2h-4z"/>
    </symbol>
    <symbol id="icon-cup-hot" viewBox="0 0 32 32">
      <path d="M1 12a1 1 0 0 0-.8.4 1 1 0 0 0-.2.8l3.3 14.9a5 5 0 0 0 5 3.9h11.5a5 5 0 0 0 4.9-4l.2-1.1a6 6 0 0 0 2.6-11.7l.5-2a1 1 0 0 0-1-1.2H1zm25 13a4 4 0 0 1-.6 0l1.7-7.8A4 4 0 0 1 26 25zM5.3 27.6 2.3 14h23.5l-3 13.6a3 3 0 0 1-3 2.4H8.2a3 3 0 0 1-3-2.4zM8.8 1.6A7.7 7.7 0 0 0 8 2.8L8 3c0 .2 0 .4.2.5l.6.9.8 1.1c.2.4.4 1 .4 1.5l-.2 1-.4.8-.5.7-.1.1A1 1 0 0 1 7 9.1c0-.2 0-.5.2-.7A7.7 7.7 0 0 0 8 7.2L8 7c0-.2 0-.4-.2-.5a8 8 0 0 0-.6-.9 10 10 0 0 1-.8-1.1A3 3 0 0 1 6 3l.2-1a6.7 6.7 0 0 1 1-1.5V.4A1 1 0 0 1 9 .9c0 .2 0 .5-.2.7zm6 0a7.7 7.7 0 0 0-.7 1.2L14 3c0 .2 0 .4.2.5l.6.9.8 1.1c.2.4.4 1 .4 1.5l-.2 1-.4.8-.5.7-.1.1a1 1 0 0 1-1.8-.5c0-.2 0-.5.2-.7a7.7 7.7 0 0 0 .7-1.2L14 7c0-.2 0-.4-.2-.5a8 8 0 0 0-.6-.9 10 10 0 0 1-.8-1.1A3 3 0 0 1 12 3l.2-1a6.7 6.7 0 0 1 1-1.5V.4a1 1 0 0 1 1.8.5c0 .2 0 .5-.2.7zm6 0a8 8 0 0 0-.7 1.2L20 3c0 .2 0 .4.2.5l.6.9.8 1.1c.2.4.4 1 .4 1.5l-.2 1-.4.8-.5.7-.1.1a1 1 0 0 1-1.8-.5c0-.2 0-.5.2-.7a8 8 0 0 0 .7-1.2L20 7c0-.2 0-.4-.2-.5a8 8 0 0 0-.6-.9 10 10 0 0 1-.8-1.1A3 3 0 0 1 18 3l.2-1a6.7 6.7 0 0 1 1-1.5V.4a1 1 0 0 1 1.8.5c0 .2 0 .5-.2.7z"/>
    </symbol>
    <symbol id="icon-diagram" viewBox="0 0 32 32">
      <path d="M12 7a3 3 0 0 1 3-3h2a3 3 0 0 1 3 3v2a3 3 0 0 1-3 3v2h11a1 1 0 0 1 1 1v2a1 1 0 0 1-1.7.7 1 1 0 0 1-.3-.7v-1H17v1a1 1 0 0 1-1.7.7 1 1 0 0 1-.3-.7v-1H5v1a1 1 0 0 1-1.7.7A1 1 0 0 1 3 17v-2a1 1 0 0 1 1-1h11v-2a3 3 0 0 1-3-3V7zm5 3a1 1 0 0 0 1-1V7a1 1 0 0 0-1-1h-2a1 1 0 0 0-1 1v2a1 1 0 0 0 1 1h2zM0 23a3 3 0 0 1 3-3h2a3 3 0 0 1 3 3v2a3 3 0 0 1-3 3H3a3 3 0 0 1-3-3v-2zm3-1a1 1 0 0 0-1 1v2a1 1 0 0 0 1 1h2a1 1 0 0 0 1-1v-2a1 1 0 0 0-1-1H3zm9 1a3 3 0 0 1 3-3h2a3 3 0 0 1 3 3v2a3 3 0 0 1-3 3h-2a3 3 0 0 1-3-3v-2zm3-1a1 1 0 0 0-1 1v2a1 1 0 0 0 1 1h2a1 1 0 0 0 1-1v-2a1 1 0 0 0-1-1h-2zm9 1a3 3 0 0 1 3-3h2a3 3 0 0 1 3 3v2a3 3 0 0 1-3 3h-2a3 3 0 0 1-3-3v-2zm3-1a1 1 0 0 0-1 1v2a1 1 0 0 0 1 1h2a1 1 0 0 0 1-1v-2a1 1 0 0 0-1-1h-2z"/>
    </symbol>
    <symbol id="icon-fridge-outline" viewBox="0 0 32 32">
      <path d="M23.7 9.3a1 1 0 0 0-1.7-.7 1 1 0 0 0-.3.7V12a1 1 0 0 0 1.7.7c.2-.2.3-.4.3-.7V9.3zm0 9.4A1 1 0 0 0 22 18a1 1 0 0 0-.3.7v2.6a1 1 0 0 0 1.7.7c.2-.1.3-.4.3-.7v-2.6z"/>
      <path d="M16 1.7c-2.5 0-4.5 0-6 .2s-2.8.6-3.8 1.6-1.5 2.3-1.7 3.8c-.2 1.6-.2 3.5-.2 6v4.1c0 2.5 0 4.4.2 6 .2 1.5.7 2.7 1.7 3.7.6.7 1.3 1 2.1 1.3v1c0 .5.5 1 1 1h1.4a1 1 0 0 0 1-1v-.5l4.2.1h4.4v.3c0 .6.5 1 1 1h1.4a1 1 0 0 0 1-1v-.9c.8-.2 1.5-.6 2.1-1.3 1-1 1.5-2.2 1.7-3.8.2-1.5.2-3.4.2-5.9v-4.1c0-2.5 0-4.4-.2-6a6.3 6.3 0 0 0-1.7-3.8c-1-1-2.3-1.4-3.8-1.6-1.5-.2-3.5-.2-6-.2zM7.7 4.9c.6-.5 1.3-.9 2.7-1 1.4-.2 3.2-.2 5.7-.2s4.4 0 5.7.2c1.4.1 2.1.5 2.7 1s.9 1.4 1 2.7c.3 1.4.3 3.2.3 5.7v1H6.3v-1c0-2.5 0-4.3.2-5.7.2-1.3.5-2.1 1.1-2.7zM6.3 16.3h19.4v1c0 2.6 0 4.4-.2 5.8-.2 1.3-.5 2-1.1 2.6s-1.3 1-2.7 1.1c-1.4.2-3.2.2-5.7.2s-4.4 0-5.7-.2c-1.4-.2-2.1-.5-2.7-1s-.9-1.4-1-2.7a48 48 0 0 1-.3-5.8v-1z"/>
    </symbol>
    <symbol id="icon-fuel-pump" viewBox="0 0 32 32">
      <path d="M6 5a1 1 0 0 1 1-1h10a1 1 0 0 1 1 1v10a1 1 0 0 1-1 1H7a1 1 0 0 1-1-1V5z"/>
      <path d="M2 4a4 4 0 0 1 4-4h12a4 4 0 0 1 4 4v16a4 4 0 0 1 4 4v1a1 1 0 0 0 1.7.7c.2-.2.3-.4.3-.7v-9h-1a1 1 0 0 1-1-1V8.7a1 1 0 0 1 1-1h3c0-.9-.1-1.7-.4-2.4a2 2 0 0 0-.8-1c-.4-.1-1-.3-1.8-.3a1 1 0 0 1-.7-1.7c.2-.2.4-.3.7-.3 1.1 0 2 .2 2.8.7a4 4 0 0 1 1.6 1.8c.6 1.3.6 3 .6 4.1V15a1 1 0 0 1-.3.7 1 1 0 0 1-.7.3h-1v9a3 3 0 1 1-6 0v-1a2 2 0 0 0-2-2v8h1a1 1 0 0 1 .7 1.7 1 1 0 0 1-.7.3H1a1 1 0 0 1-.7-1.7c.2-.2.4-.3.7-.3h1V4zm18 0a2 2 0 0 0-2-2H6a2 2 0 0 0-2 2v26h16V4z"/>
    </symbol>
    <symbol id="icon-fully-Integrated" viewBox="0 0 32 32">
      <path d="M2 5a3 3 0 0 1 3-3h6a3 3 0 0 1 3 3v6a3 3 0 0 1-3 3H5a3 3 0 0 1-3-3V5zm3-1a1 1 0 0 0-1 1v6a1 1 0 0 0 1 1h6a1 1 0 0 0 1-1V5a1 1 0 0 0-1-1H5zm13 1a3 3 0 0 1 3-3h6a3 3 0 0 1 3 3v6a3 3 0 0 1-3 3h-6a3 3 0 0 1-3-3V5zm3-1a1 1 0 0 0-1 1v6a1 1 0 0 0 1 1h6a1 1 0 0 0 1-1V5a1 1 0 0 0-1-1h-6zM2 21a3 3 0 0 1 3-3h6a3 3 0 0 1 3 3v6a3 3 0 0 1-3 3H5a3 3 0 0 1-3-3v-6zm3-1a1 1 0 0 0-1 1v6a1 1 0 0 0 1 1h6a1 1 0 0 0 1-1v-6a1 1 0 0 0-1-1H5zm13 1a3 3 0 0 1 3-3h6a3 3 0 0 1 3 3v6a3 3 0 0 1-3 3h-6a3 3 0 0 1-3-3v-6zm3-1a1 1 0 0 0-1 1v6a1 1 0 0 0 1 1h6a1 1 0 0 0 1-1v-6a1 1 0 0 0-1-1h-6z"/>
    </symbol>
    <symbol id="icon-gas-stove" viewBox="0 0 32 32">
      <path stroke-linecap="round" stroke-linejoin="round" stroke-width="2.4" d="M8 25.3h5.3M2.7 8c0-4.4.9-5.3 5.3-5.3h16c4.4 0 5.3.9 5.3 5.3v16c0 4.4-.9 5.3-5.3 5.3H8c-4.4 0-5.3-.9-5.3-5.3V8z"/>
      <path stroke-linecap="round" stroke-linejoin="round" stroke-width="2.4" d="M16 18.7A5.3 5.3 0 1 0 16 8a5.3 5.3 0 0 0 0 10.7zM20.7 13.3h2M16 18v2m-4.7-6.7h-2M16 8.7v-2"/>
    </symbol>
    <symbol id="icon-heart-default" viewBox="0 0 32 32">
      <path d="m16 13.1-1.8-3.5c-.4-1-1.2-2.2-2.3-3.2-1-1-2.3-1.7-3.9-1.7a6 6 0 0 0-6 5.8c0 2.4 1.1 4.1 3.7 6.7L8 19.4c2.2 2.1 5 4.7 8 8.2a105.3 105.3 0 0 1 10.3-10.4c2.6-2.6 3.7-4.3 3.7-6.7a6 6 0 0 0-6-5.8c-1.6 0-2.8.7-4 1.7-1 1-1.8 2.3-2.2 3.2L16 13zm.8 16.6a1 1 0 0 1-1.6 0A97.6 97.6 0 0 0 6.7 21C2.6 17 0 14.6 0 10.5a8 8 0 0 1 8-7.8c3.2 0 5.4 2 6.8 4 .5.7 1 1.4 1.2 2 .3-.7.7-1.4 1.2-2 1.4-2 3.6-4 6.8-4a8 8 0 0 1 8 7.8c0 4.1-2.6 6.6-6.7 10.5-2.4 2.2-5.3 5-8.5 8.7z"/>
    </symbol>
    <symbol id="icon-microwave" viewBox="0 0 32 32">
      <path stroke-linecap="round" stroke-linejoin="round" stroke-width="2" d="M26.7 5.3H5.3A2.7 2.7 0 0 0 2.7 8v14.7c0 1.4 1.2 2.6 2.6 2.6h21.4c1.4 0 2.6-1.2 2.6-2.6V8c0-1.5-1.2-2.7-2.6-2.7z"/>
      <path stroke-linecap="round" stroke-linejoin="round" stroke-width="2" d="M17.3 10.7h-8c-.7 0-1.3.6-1.3 1.3v6.7c0 .7.6 1.3 1.3 1.3h8c.8 0 1.4-.6 1.4-1.3V12c0-.7-.6-1.3-1.4-1.3zM24 10.7V20M8 25.3V28m16-2.7V28"/>
    </symbol>
    <symbol id="icon-radios" viewBox="0 0 32 32">
      <path d="M14 5a1 1 0 0 1 1-1h14a1 1 0 0 1 1 1v2a1 1 0 0 1-1 1H15a1 1 0 0 1-1-1V5zM0 24a6 6 0 1 1 12 0 6 6 0 0 1-12 0zm14-3a1 1 0 0 1 1-1h14a1 1 0 0 1 1 1v2a1 1 0 0 1-1 1H15a1 1 0 0 1-1-1v-2zm0-10a1 1 0 0 1 1-1h10a1 1 0 0 1 .7 1.7 1 1 0 0 1-.7.3H15a1 1 0 0 1-1-1zm0 16a1 1 0 0 1 1-1h10a1 1 0 0 1 .7 1.7 1 1 0 0 1-.7.3H15a1 1 0 0 1-1-1zM6 2a6 6 0 1 0 0 12A6 6 0 0 0 6 2zm0 9a3 3 0 1 1 0-6 3 3 0 0 1 0 6z"/>
    </symbol>
    <symbol id="icon-shower" viewBox="0 0 32 32">
      <path d="M8 29.5a1.5 1.5 0 0 1-2.6 1 1.5 1.5 0 1 1 2.6-1zm2.5-5.5a1.5 1.5 0 0 0-1 2.6l.7.4.9-.1c.3 0 .5-.3.6-.6a1.5 1.5 0 0 0-1.2-2.3zm-8 0a1.5 1.5 0 0 0-1 2.6l.7.4.9-.1a1.5 1.5 0 0 0-.6-2.9zm4-4a1.5 1.5 0 0 0-1 2.6l.7.4.9-.1a1.5 1.5 0 0 0-.6-2.9zM32 5a1 1 0 0 1-1 1h-3.6L24 9.5l-2.7 15.8a2 2 0 0 1-3.4 1.1L5.6 14.2a2 2 0 0 1 1-3.4l16-2.7 3.7-3.8A1 1 0 0 1 27 4h4a1 1 0 0 1 1 1zm-10.2 5.2L7 12.8 19.3 25l2.5-14.8z"/>
    </symbol>
    <symbol id="icon-star-yellow" viewBox="0 0 32 32">
      <path d="M15.1 1.7a1 1 0 0 1 1.8 0l3.8 7.1c.1.3.4.5.7.6l8 1.3a1 1 0 0 1 .5 1.7l-5.6 5.8a1 1 0 0 0-.3.9l1.1 8a1 1 0 0 1-1.4 1l-7.3-3.6a1 1 0 0 0-.8 0l-7.3 3.6a1 1 0 0 1-1.4-1L8 19c0-.3 0-.7-.3-.9l-5.6-5.8a1 1 0 0 1 .6-1.7l8-1.3c.2-.1.5-.3.6-.6l3.8-7.1z"/>
    </symbol>
    <symbol id="icon-tv" viewBox="0 0 32 32">
      <path d="M0 8s0-4 4-4h24s4 0 4 4v12s0 4-4 4h-8a7 7 0 0 0 .5 3H22a1 1 0 0 1 .7 1.7 1 1 0 0 1-.7.3H10a1 1 0 0 1-.7-1.7c.2-.2.4-.3.7-.3h1.5a7 7 0 0 0 .5-3H4s-4 0-4-4V8zm2.8-1.7-.5.6A3 3 0 0 0 2 8v12c0 .7.2 1 .3 1.2.1.2.3.4.6.5.3.2.7.3 1 .3H28c.7 0 1-.2 1.2-.3l.5-.6c.2-.3.3-.7.3-1V8c0-.7-.2-1-.3-1.2l-.6-.5A3 3 0 0 0 28 6H4a2 2 0 0 0-1.2.3z"/>
    </symbol>
    <symbol id="icon-van" viewBox="0 0 32 32">
      <path d="M12 2H2v28h10V2zm18 0H20v10h10V2zm0 18v10H20V20h10zM0 2a2 2 0 0 1 2-2h10a2 2 0 0 1 2 2v28a2 2 0 0 1-2 2H2a2 2 0 0 1-2-2V2zm18 0a2 2 0 0 1 2-2h10a2 2 0 0 1 2 2v10a2 2 0 0 1-2 2H20a2 2 0 0 1-2-2V2zm2 16a2 2 0 0 0-2 2v10a2 2 0 0 0 2 2h10a2 2 0 0 0 2-2V20a2 2 0 0 0-2-2H20z"/>
    </symbol>
    <symbol id="icon-water-outline" viewBox="0 0 32 32">
      <path stroke-miterlimit="10" stroke-width="2" d="M25 20c0 5.5-3.5 9-9 9s-9-3.5-9-9c0-6 6.5-14 8.4-16.2a.8.8 0 0 1 .6-.3.7.7 0 0 1 .6.3C18.6 6 25 14 25 20z"/>
      <path stroke-linecap="round" stroke-linejoin="round" stroke-width="2" d="M21.5 20.5A4.5 4.5 0 0 1 17 25"/>
    </symbol>
    <symbol id="icon-wind" viewBox="0 0 32 32">
      <path d="M25 4a5 5 0 0 0-5 5 1 1 0 0 1-1.7.7A1 1 0 0 1 18 9a7 7 0 1 1 7 7H1a1 1 0 0 1-.7-1.7c.2-.2.4-.3.7-.3h24a5 5 0 0 0 0-10zM11 6a2 2 0 0 0-2 2 1 1 0 0 1-1.7.7A1 1 0 0 1 7 8a4 4 0 1 1 4 4H1a1 1 0 0 1-.7-1.7c.2-.2.4-.3.7-.3h10a2 2 0 0 0 0-4zM0 19a1 1 0 0 1 1-1h20a6 6 0 1 1-6 6 1 1 0 0 1 1.8-.7c.2.2.3.4.3.7a4 4 0 1 0 4-4H1a1 1 0 0 1-1-1z"/>
    </symbol>
    <symbol id="icon-map" viewBox="0 0 32 32">
      <path d="M31.6.2a1 1 0 0 1 .4.8v28a1 1 0 0 1-.8 1l-10 2a1 1 0 0 1-.4 0L11 30l-9.8 2a1 1 0 0 1-.8-.2A1 1 0 0 1 0 31V3a1 1 0 0 1 .8-1l10-2h.4L21 2l9.8-2a1 1 0 0 1 .8.2zM20 3.8l-8-1.6v26l8 1.6v-26zm2 26 8-1.6v-26l-8 1.6v26zm-12-1.6v-26L2 3.8v26l8-1.6z"/>
    </symbol>
  </defs>
</svg>
